# xmcd
#
# Track frame offsets:
# 150
# 13597
# 33151
# 46430
# 59916
# 73281
# 86578
# 100053
# 110766
# 124299
# 137909
# 151501
# 164923
# 178623
# 192235
# 205911
#
# Disc length: 2809 seconds
#
#
# Revision: 0
# Processed by: cddbd v1.5.2PL0 Copyright (c) Steve Scherf et al.
# Submitted via: FreeRIP 2.945 
#
DISCID=ec0af710
DTITLE=Murphy-P2001 - Wild-Angel9
DYEAR=2001
DGENRE=Jungle
TTITLE0=WA 901
TTITLE1=WA 902
TTITLE2=WA 903
TTITLE3=WA 904
TTITLE4=WA 905
TTITLE5=WA 906
TTITLE6=WA 907
TTITLE7=WA 908
TTITLE8=WA 909
TTITLE9=WA 910
TTITLE10=WA 911
TTITLE11=WA 912
TTITLE12=WA 913
TTITLE13=WA 914
TTITLE14=WA 915
TTITLE15=WA 916
EXTD=Wild Angel by Pat (Patrice) Murphy 9 CDs\nread by Bernadette Dunne Blackstone Audio\njungle country
EXTT0=
EXTT1=
EXTT2=
EXTT3=
EXTT4=
EXTT5=
EXTT6=
EXTT7=
EXTT8=
EXTT9=
EXTT10=
EXTT11=
EXTT12=
EXTT13=
EXTT14=
EXTT15=
PLAYORDER=
